<svg width="1053" height="175" viewBox="0 0 1053 175" fill="none" xmlns="http://www.w3.org/2000/svg">
<path d="M91.7052 47.2737H103.358L88.4842 99C88.1684 100.074 87.9158 101.084 87.7263 102.032C87.6 102.979 87.5368 103.832 87.5368 104.589C87.5368 107.747 88.8316 109.326 91.421 109.326C92.3684 109.326 93.6947 109.137 95.4 108.758C97.1684 108.316 99.0631 107.589 101.084 106.579C103.105 105.505 105.158 104.053 107.242 102.221C109.326 100.326 111.221 97.9579 112.926 95.1158C114.632 92.2105 116.021 88.7368 117.095 84.6947C118.168 80.6526 118.705 75.8842 118.705 70.3895C118.705 63.6947 117.347 57.5684 114.632 52.0105C111.979 46.3895 108.411 41.5895 103.926 37.6105C99.4421 33.5684 94.2631 30.4421 88.3894 28.2316C82.5789 25.9579 76.5158 24.8211 70.2 24.8211C61.9895 24.8211 54.3158 26.3368 47.1789 29.3684C40.0421 32.3368 33.8526 36.4737 28.6105 41.7789C23.3684 47.0842 19.2316 53.4 16.2 60.7263C13.1684 68.0526 11.6526 76.0105 11.6526 84.6C11.6526 92.7474 13.2 100.137 16.2947 106.768C19.4526 113.4 23.621 119.084 28.8 123.821C33.9789 128.495 39.9158 132.095 46.6105 134.621C53.3684 137.211 60.3473 138.505 67.5473 138.505C72.4105 138.505 76.9895 137.968 81.2842 136.895C85.5789 135.884 89.5579 134.432 93.221 132.537C96.9473 130.642 100.295 128.368 103.263 125.716C106.295 123 108.947 120 111.221 116.716H122.874C120.726 122.274 117.632 127.137 113.589 131.305C109.611 135.411 105.032 138.821 99.8526 141.537C94.6737 144.253 89.0526 146.274 82.9895 147.6C76.9895 148.926 70.8631 149.589 64.6105 149.589C59.0526 149.589 53.5895 148.863 48.221 147.411C42.9158 146.021 37.8631 143.968 33.0631 141.253C28.2631 138.6 23.8421 135.379 19.8 131.589C15.7579 127.737 12.2526 123.411 9.28419 118.611C6.37893 113.811 4.10525 108.6 2.46314 102.979C0.821035 97.3579 -1.71363e-05 91.3895 -1.71363e-05 85.0737C-1.71363e-05 74.0842 1.89472 64.2 5.68419 55.421C9.47367 46.6421 14.5895 39.1895 21.0316 33.0632C27.4737 26.8737 34.9579 22.1368 43.4842 18.8526C52.0105 15.5053 60.9789 13.8316 70.3895 13.8316C75.5052 13.8316 80.5263 14.4632 85.4526 15.7263C90.4421 16.9263 95.1158 18.6947 99.4737 21.0316C103.895 23.3053 107.968 26.0842 111.695 29.3684C115.421 32.6526 118.642 36.3789 121.358 40.5474C124.074 44.6526 126.189 49.1368 127.705 54C129.221 58.8632 129.979 64.0105 129.979 69.4421C129.979 77.7158 128.716 85.0421 126.189 91.421C123.726 97.8 120.411 103.137 116.242 107.432C112.137 111.726 107.432 114.979 102.126 117.189C96.821 119.4 91.3894 120.505 85.8316 120.505C84.1894 120.505 82.6737 120.221 81.2842 119.653C79.9579 119.084 78.821 118.295 77.8737 117.284C76.9263 116.274 76.1684 115.137 75.6 113.874C75.0316 112.547 74.7158 111.158 74.6526 109.705C71.8737 113.495 68.8737 116.242 65.6526 117.947C62.4316 119.653 58.5473 120.505 54 120.505C49.9579 120.505 46.2947 119.716 43.0105 118.137C39.7895 116.495 37.0421 114.379 34.7684 111.789C32.4947 109.2 30.7579 106.232 29.5579 102.884C28.3579 99.5368 27.7579 96.1579 27.7579 92.7474C27.7579 89.021 28.2 85.2632 29.0842 81.4737C29.9684 77.621 31.2316 73.9263 32.8737 70.3895C34.5789 66.7895 36.6 63.4105 38.9368 60.2526C41.3368 57.0947 44.021 54.3789 46.9895 52.1053C50.021 49.7684 53.3052 47.9368 56.8421 46.6105C60.3789 45.221 64.1368 44.5263 68.1158 44.5263C71.021 44.5263 73.6105 45.0316 75.8842 46.0421C78.1579 47.0526 80.1158 48.2842 81.7579 49.7368C83.4 51.1263 84.7263 52.6105 85.7368 54.1895C86.8105 55.7684 87.5368 57.0947 87.9158 58.1684L91.7052 47.2737ZM78.9158 90.1895C79.9263 86.9053 80.7158 84.1895 81.2842 82.0421C81.9158 79.8947 82.3895 78.1579 82.7052 76.8316C83.021 75.5053 83.2105 74.4947 83.2737 73.8C83.3368 73.1053 83.3684 72.5053 83.3684 72C83.3684 69.6 82.9579 67.3895 82.1368 65.3684C81.3789 63.3474 80.3052 61.6421 78.9158 60.2526C77.5263 58.8 75.9158 57.6947 74.0842 56.9368C72.2526 56.1158 70.2947 55.7053 68.2105 55.7053C65.8737 55.7053 63.5684 56.2421 61.2947 57.3158C59.021 58.3895 56.8421 59.8105 54.7579 61.5789C52.6737 63.3474 50.7158 65.4316 48.8842 67.8316C47.1158 70.1684 45.5684 72.6632 44.2421 75.3158C42.9789 77.9053 41.9684 80.5579 41.2105 83.2737C40.4526 85.9263 40.0737 88.4842 40.0737 90.9474C40.0737 93.221 40.3579 95.4632 40.9263 97.6737C41.4947 99.8842 42.3789 101.905 43.5789 103.737C44.7789 105.505 46.3263 106.958 48.221 108.095C50.1789 109.168 52.5158 109.705 55.2316 109.705C57.6316 109.705 60.0316 109.263 62.4316 108.379C64.8316 107.495 67.0737 106.232 69.1579 104.589C71.3052 102.947 73.2 100.926 74.8421 98.5263C76.5473 96.0632 77.9052 93.2842 78.9158 90.1895ZM156.356 9.66316V36.3789H173.409V48.3158H156.356V111.505C156.356 113.589 156.609 115.358 157.114 116.811C157.682 118.2 158.409 119.337 159.293 120.221C160.24 121.042 161.346 121.642 162.609 122.021C163.872 122.337 165.23 122.495 166.682 122.495C168.451 122.495 170.282 122.337 172.177 122.021C174.072 121.642 175.714 121.295 177.103 120.979V132.442C175.461 132.947 173.314 133.453 170.661 133.958C168.072 134.463 165.388 134.716 162.609 134.716C160.209 134.716 157.777 134.368 155.314 133.674C152.914 133.042 150.735 132 148.777 130.547C146.882 129.095 145.335 127.232 144.135 124.958C142.935 122.621 142.335 119.779 142.335 116.432V48.3158H127.556V36.3789H142.335V9.66316H156.356ZM196.039 -3.57628e-06V49.6421C197.997 46.7368 200.144 44.3368 202.481 42.4421C204.818 40.4842 207.281 38.9368 209.87 37.8C212.523 36.6 215.302 35.7474 218.207 35.2421C221.112 34.7368 224.081 34.4842 227.112 34.4842C231.66 34.4842 235.828 35.2105 239.618 36.6632C243.407 38.1158 246.66 40.1053 249.375 42.6316C252.154 45.1579 254.302 48.1579 255.818 51.6316C257.397 55.1053 258.186 58.8632 258.186 62.9053V132.821H244.165V65.3684C244.165 62.0842 243.597 59.2737 242.46 56.9368C241.323 54.6 239.807 52.7053 237.912 51.2526C236.081 49.7368 233.933 48.6632 231.47 48.0316C229.07 47.3368 226.544 46.9895 223.891 46.9895C220.607 46.9895 217.291 47.6842 213.944 49.0737C210.66 50.4 207.691 52.2632 205.039 54.6632C202.386 57.0632 200.207 59.8737 198.502 63.0947C196.86 66.3158 196.039 69.7895 196.039 73.5158V132.821H182.018V-3.57628e-06H196.039ZM280.45 86.9684C280.513 91.3895 281.271 95.7474 282.723 100.042C284.239 104.274 286.26 108.063 288.786 111.411C291.376 114.695 294.407 117.379 297.881 119.463C301.355 121.484 305.113 122.495 309.155 122.495C322.797 122.495 331.86 116.147 336.344 103.453H349.134C348.06 108.379 346.26 112.8 343.734 116.716C341.207 120.568 338.144 123.853 334.544 126.568C330.944 129.221 326.965 131.242 322.607 132.632C318.25 134.021 313.765 134.716 309.155 134.716C302.523 134.716 296.523 133.295 291.155 130.453C285.85 127.611 281.302 123.821 277.513 119.084C273.723 114.347 270.818 108.884 268.797 102.695C266.776 96.4421 265.765 89.9053 265.765 83.0842C265.765 76.7053 266.776 70.5789 268.797 64.7053C270.818 58.8316 273.692 53.6526 277.418 49.1684C281.207 44.6842 285.755 41.1158 291.06 38.4632C296.428 35.8105 302.428 34.4842 309.06 34.4842C315.502 34.4842 321.281 35.6842 326.397 38.0842C331.576 40.4842 335.997 43.8 339.66 48.0316C343.323 52.2632 346.134 57.221 348.092 62.9053C350.05 68.5895 351.028 74.7474 351.028 81.3789V86.9684H280.45ZM336.534 76.1684C336.407 72.1263 335.65 68.3368 334.26 64.8C332.934 61.2632 331.039 58.1684 328.576 55.5158C326.176 52.8632 323.239 50.7789 319.765 49.2632C316.292 47.7474 312.407 46.9895 308.113 46.9895C304.197 46.9895 300.565 47.8105 297.218 49.4526C293.871 51.0947 290.965 53.2737 288.502 55.9895C286.039 58.7053 284.081 61.8316 282.628 65.3684C281.239 68.8421 280.513 72.4421 280.45 76.1684H336.534ZM372.375 -3.57628e-06V16.3895H358.354V-3.57628e-06H372.375ZM372.375 36.3789V132.821H358.354V36.3789H372.375ZM417.946 116.242L445.704 36.3789H460.483L425.62 132.821H410.367L375.22 36.3789H390.283L417.946 116.242ZM541.292 133.579C540.408 133.895 539.24 134.147 537.787 134.337C536.398 134.589 535.229 134.716 534.282 134.716C530.366 134.716 527.05 133.232 524.334 130.263C521.682 127.232 520.198 122.621 519.882 116.432C516.85 120.347 513.85 123.505 510.882 125.905C507.976 128.305 505.071 130.168 502.166 131.495C499.261 132.758 496.324 133.611 493.355 134.053C490.45 134.495 487.482 134.716 484.45 134.716C480.534 134.716 476.871 134.084 473.461 132.821C470.05 131.558 467.05 129.758 464.461 127.421C461.934 125.084 459.945 122.274 458.492 118.989C457.04 115.705 456.313 112.042 456.313 108C456.313 103.958 457.198 100.516 458.966 97.6737C460.734 94.7684 463.071 92.2737 465.976 90.1895C468.945 88.1053 472.261 86.3684 475.924 84.9789C479.65 83.5263 483.44 82.2632 487.292 81.1895C491.208 80.0526 495.029 78.9789 498.755 77.9684C502.482 76.9579 505.798 75.8526 508.703 74.6526C511.671 73.3895 514.04 71.9684 515.808 70.3895C517.576 68.7474 518.461 66.7263 518.461 64.3263C518.461 61.5474 517.924 59.0842 516.85 56.9368C515.776 54.7895 514.261 52.9895 512.303 51.5368C510.345 50.021 507.976 48.8842 505.198 48.1263C502.419 47.3684 499.355 46.9895 496.008 46.9895C493.166 46.9895 490.482 47.3684 487.955 48.1263C485.429 48.821 483.155 49.8632 481.134 51.2526C479.113 52.6421 477.44 54.3474 476.113 56.3684C474.787 58.3895 473.934 60.7263 473.555 63.3789H458.871C459.187 58.7053 460.45 54.5684 462.661 50.9684C464.871 47.3684 467.682 44.3684 471.092 41.9684C474.503 39.5053 478.355 37.6421 482.65 36.3789C487.008 35.1158 491.461 34.4842 496.008 34.4842C500.934 34.4842 505.576 35.0842 509.934 36.2842C514.355 37.4842 518.24 39.3158 521.587 41.7789C524.934 44.2421 527.587 47.3684 529.545 51.1579C531.503 54.8842 532.482 59.2737 532.482 64.3263V114.253C532.482 116.716 533.082 118.705 534.282 120.221C535.545 121.674 537.092 122.4 538.924 122.4C539.745 122.4 540.534 122.274 541.292 122.021V133.579ZM518.461 79.2C516.503 81.2842 513.945 83.021 510.787 84.4105C507.692 85.7368 504.345 86.9368 500.745 88.0105C497.208 89.0842 493.64 90.1263 490.04 91.1368C486.44 92.1474 483.155 93.3474 480.187 94.7368C477.282 96.1263 474.913 97.8316 473.082 99.8526C471.25 101.811 470.334 104.305 470.334 107.337C470.334 110.053 470.808 112.358 471.755 114.253C472.703 116.147 473.934 117.726 475.45 118.989C476.966 120.189 478.703 121.074 480.661 121.642C482.619 122.211 484.608 122.495 486.629 122.495C492.44 122.495 498.124 120.726 503.682 117.189C509.303 113.653 514.229 108.221 518.461 100.895V79.2ZM546.482 36.3789H560.503V50.5895C565.43 44.9053 570.735 40.8 576.419 38.2737C582.103 35.7474 587.946 34.4842 593.946 34.4842C598.43 34.4842 602.44 35.1474 605.977 36.4737C609.514 37.8 612.514 39.6947 614.977 42.1579C617.44 44.6211 619.303 47.621 620.567 51.1579C621.893 54.6316 622.556 58.5474 622.556 62.9053V132.821H608.535V64.7053C608.535 61.421 608.125 58.6737 607.303 56.4632C606.546 54.1895 605.409 52.3579 603.893 50.9684C602.44 49.5789 600.64 48.5684 598.493 47.9368C596.346 47.3053 593.946 46.9895 591.293 46.9895C586.998 46.9895 582.988 47.7474 579.261 49.2632C575.535 50.7789 572.282 52.8 569.503 55.3263C566.725 57.7895 564.514 60.6632 562.872 63.9474C561.293 67.1684 560.503 70.5158 560.503 73.9895V132.821H546.482V36.3789ZM704.693 36.3789V49.7368L647.093 120.032H704.693V132.821H628.714V120.6L685.556 49.8316H628.714V36.3789H704.693ZM724.711 -3.57628e-06V49.6421C726.669 46.7368 728.817 44.3368 731.153 42.4421C733.49 40.4842 735.953 38.9368 738.543 37.8C741.196 36.6 743.974 35.7474 746.88 35.2421C749.785 34.7368 752.753 34.4842 755.785 34.4842C760.332 34.4842 764.501 35.2105 768.29 36.6632C772.08 38.1158 775.332 40.1053 778.048 42.6316C780.827 45.1579 782.974 48.1579 784.49 51.6316C786.069 55.1053 786.859 58.8632 786.859 62.9053V132.821H772.838V65.3684C772.838 62.0842 772.269 59.2737 771.132 56.9368C769.996 54.6 768.48 52.7053 766.585 51.2526C764.753 49.7368 762.606 48.6632 760.143 48.0316C757.743 47.3368 755.217 46.9895 752.564 46.9895C749.28 46.9895 745.964 47.6842 742.617 49.0737C739.332 50.4 736.364 52.2632 733.711 54.6632C731.059 57.0632 728.88 59.8737 727.174 63.0947C725.532 66.3158 724.711 69.7895 724.711 73.5158V132.821H710.69V-3.57628e-06H724.711ZM809.122 86.9684C809.185 91.3895 809.943 95.7474 811.396 100.042C812.912 104.274 814.933 108.063 817.459 111.411C820.049 114.695 823.08 117.379 826.554 119.463C830.027 121.484 833.785 122.495 837.827 122.495C851.47 122.495 860.533 116.147 865.017 103.453H877.806C876.733 108.379 874.933 112.8 872.406 116.716C869.88 120.568 866.817 123.853 863.217 126.568C859.617 129.221 855.638 131.242 851.28 132.632C846.922 134.021 842.438 134.716 837.827 134.716C831.196 134.716 825.196 133.295 819.827 130.453C814.522 127.611 809.975 123.821 806.185 119.084C802.396 114.347 799.491 108.884 797.47 102.695C795.449 96.4421 794.438 89.9053 794.438 83.0842C794.438 76.7053 795.449 70.5789 797.47 64.7053C799.491 58.8316 802.364 53.6526 806.091 49.1684C809.88 44.6842 814.427 41.1158 819.733 38.4632C825.101 35.8105 831.101 34.4842 837.733 34.4842C844.175 34.4842 849.954 35.6842 855.07 38.0842C860.248 40.4842 864.67 43.8 868.333 48.0316C871.996 52.2632 874.806 57.221 876.764 62.9053C878.722 68.5895 879.701 74.7474 879.701 81.3789V86.9684H809.122ZM865.206 76.1684C865.08 72.1263 864.322 68.3368 862.933 64.8C861.606 61.2632 859.712 58.1684 857.249 55.5158C854.848 52.8632 851.912 50.7789 848.438 49.2632C844.964 47.7474 841.08 46.9895 836.785 46.9895C832.87 46.9895 829.238 47.8105 825.891 49.4526C822.543 51.0947 819.638 53.2737 817.175 55.9895C814.712 58.7053 812.754 61.8316 811.301 65.3684C809.912 68.8421 809.185 72.4421 809.122 76.1684H865.206ZM887.027 36.3789H901.048V50.5895C905.974 44.9053 911.28 40.8 916.964 38.2737C922.648 35.7474 928.49 34.4842 934.49 34.4842C938.974 34.4842 942.985 35.1474 946.522 36.4737C950.059 37.8 953.059 39.6947 955.522 42.1579C957.985 44.6211 959.848 47.621 961.111 51.1579C962.437 54.6316 963.101 58.5474 963.101 62.9053V132.821H949.08V64.7053C949.08 61.421 948.669 58.6737 947.848 56.4632C947.09 54.1895 945.953 52.3579 944.437 50.9684C942.985 49.5789 941.185 48.5684 939.037 47.9368C936.89 47.3053 934.49 46.9895 931.837 46.9895C927.543 46.9895 923.532 47.7474 919.806 49.2632C916.08 50.7789 912.827 52.8 910.048 55.3263C907.269 57.7895 905.059 60.6632 903.416 63.9474C901.837 67.1684 901.048 70.5158 901.048 73.9895V132.821H887.027V36.3789ZM1052.82 135.189C1052.82 141.695 1051.71 147.411 1049.5 152.337C1047.29 157.326 1044.32 161.495 1040.6 164.842C1036.93 168.189 1032.7 170.716 1027.9 172.421C1023.1 174.126 1018.11 174.979 1012.93 174.979C1004.03 174.979 996.227 172.674 989.533 168.063C982.838 163.453 977.785 156.126 974.375 146.084H988.49C991.08 151.895 994.364 156.095 998.343 158.684C1002.32 161.274 1007.19 162.568 1012.93 162.568C1016.47 162.568 1019.79 161.905 1022.88 160.579C1026.04 159.253 1028.79 157.389 1031.12 154.989C1033.52 152.653 1035.39 149.842 1036.71 146.558C1038.1 143.337 1038.8 139.768 1038.8 135.853V117.568C1037.22 120.6 1035.42 123.221 1033.4 125.432C1031.37 127.579 1029.23 129.347 1026.95 130.737C1024.68 132.126 1022.31 133.137 1019.85 133.768C1017.39 134.4 1014.92 134.716 1012.46 134.716C1006.02 134.716 1000.21 133.358 995.027 130.642C989.912 127.926 985.554 124.263 981.954 119.653C978.354 115.042 975.575 109.674 973.617 103.547C971.722 97.421 970.775 90.9474 970.775 84.1263C970.775 77.3053 971.722 70.8947 973.617 64.8947C975.575 58.8316 978.29 53.5579 981.764 49.0737C985.301 44.5895 989.533 41.0526 994.459 38.4632C999.448 35.8105 1005.01 34.4842 1011.13 34.4842C1013.28 34.4842 1015.55 34.6737 1017.95 35.0526C1020.35 35.4316 1022.75 36.2211 1025.15 37.4211C1027.62 38.621 1029.99 40.3579 1032.26 42.6316C1034.6 44.8421 1036.77 47.7789 1038.8 51.4421V36.3789H1052.82V135.189ZM1038.8 82.9895C1038.67 78.0632 1038.01 73.421 1036.81 69.0632C1035.67 64.7053 1034 60.9158 1031.79 57.6947C1029.64 54.4105 1026.99 51.8211 1023.83 49.9263C1020.67 47.9684 1017.1 46.9895 1013.12 46.9895C1009.02 46.9895 1005.23 47.9684 1001.75 49.9263C998.28 51.8842 995.28 54.5684 992.754 57.9789C990.29 61.3263 988.333 65.2421 986.88 69.7263C985.49 74.2105 984.796 79.0105 984.796 84.1263C984.796 89.2421 985.49 94.1053 986.88 98.7158C988.333 103.326 990.29 107.4 992.754 110.937C995.28 114.411 998.28 117.189 1001.75 119.274C1005.23 121.295 1009.02 122.305 1013.12 122.305C1017.16 122.305 1020.76 121.358 1023.92 119.463C1027.14 117.505 1029.86 114.853 1032.07 111.505C1034.28 108.158 1035.95 104.274 1037.09 99.8526C1038.23 95.3684 1038.8 90.5684 1038.8 85.4526V82.9895Z" fill="#E9E9E9"/>
</svg>
