<svg width="1024" height="261" viewBox="0 0 1024 261" fill="none" xmlns="http://www.w3.org/2000/svg">
<rect x="5" y="6" width="471" height="241" rx="25" stroke="#E9E9E9" stroke-width="10"/>
<path d="M229.029 202.021C219.42 202.021 211.158 199.941 204.244 195.781C197.33 191.621 191.998 185.791 188.248 178.291C184.557 170.791 182.711 162.031 182.711 152.012C182.711 142.109 184.557 133.379 188.248 125.82C191.939 118.203 197.154 112.256 203.893 107.979C210.631 103.701 218.482 101.562 227.447 101.562C233.307 101.562 238.844 102.529 244.059 104.463C249.332 106.396 253.99 109.385 258.033 113.428C262.135 117.412 265.357 122.51 267.701 128.721C270.045 134.873 271.217 142.197 271.217 150.693V157.197H192.906V142.783H261.285L252.496 147.441C252.496 141.523 251.529 136.309 249.596 131.797C247.721 127.227 244.908 123.682 241.158 121.162C237.467 118.643 232.926 117.383 227.535 117.383C222.145 117.383 217.516 118.672 213.648 121.25C209.84 123.828 206.91 127.256 204.859 131.533C202.809 135.811 201.783 140.586 201.783 145.859V155.264C201.783 161.768 202.896 167.334 205.123 171.963C207.408 176.592 210.602 180.137 214.703 182.598C218.863 185 223.697 186.201 229.205 186.201C232.896 186.201 236.236 185.674 239.225 184.619C242.213 183.506 244.762 181.895 246.871 179.785C248.98 177.676 250.562 175.098 251.617 172.051L269.723 175.391C268.258 180.664 265.65 185.322 261.9 189.365C258.15 193.35 253.463 196.455 247.838 198.682C242.271 200.908 236.002 202.021 229.029 202.021ZM330.684 201.934C325.176 201.934 320.547 201.025 316.797 199.209C313.105 197.334 310.088 195.107 307.744 192.529C305.459 189.893 303.643 187.344 302.295 184.883H300.977V200H282.256V69.043H301.504V118.35H302.383C303.672 116.006 305.459 113.545 307.744 110.967C310.029 108.389 313.018 106.191 316.709 104.375C320.4 102.5 325.059 101.562 330.684 101.562C338.652 101.562 345.684 103.584 351.777 107.627C357.93 111.611 362.764 117.354 366.279 124.854C369.795 132.295 371.553 141.23 371.553 151.66C371.553 162.031 369.795 170.967 366.279 178.467C362.822 185.967 358.018 191.768 351.865 195.869C345.771 199.912 338.711 201.934 330.684 201.934ZM326.553 185.586C332.002 185.586 336.631 184.121 340.439 181.191C344.248 178.262 347.119 174.248 349.053 169.15C351.045 163.994 352.041 158.135 352.041 151.572C352.041 144.951 351.045 139.121 349.053 134.082C347.119 129.043 344.248 125.088 340.439 122.217C336.689 119.346 332.061 117.91 326.553 117.91C321.045 117.91 316.387 119.316 312.578 122.129C308.77 124.941 305.869 128.867 303.877 133.906C301.943 138.887 300.977 144.775 300.977 151.572C300.977 158.311 301.973 164.229 303.965 169.326C305.957 174.424 308.857 178.408 312.666 181.279C316.533 184.15 321.162 185.586 326.553 185.586ZM425.658 102.969V118.613H372.221V102.969H425.658ZM386.986 79.1504H406.234V173.896C406.234 177.705 407.025 180.488 408.607 182.246C410.189 184.004 412.885 184.883 416.693 184.883C417.807 184.883 419.184 184.795 420.824 184.619C422.465 184.385 423.871 184.18 425.043 184.004L427.768 199.473C425.775 200 423.637 200.381 421.352 200.615C419.066 200.85 416.811 200.967 414.584 200.967C405.736 200.967 398.91 198.799 394.105 194.463C389.359 190.068 386.986 183.799 386.986 175.654V79.1504Z" fill="#E9E9E9"/>
<path d="M49 204V91.9883H74.7409V179.781H106.332C135.817 181.719 150.793 147.086 147.868 124.684C147.868 89.5664 130.903 73.8242 101.067 71.4023H74.7409H49V49H110.427C202.275 49 190.575 204 110.427 204H49Z" fill="#E9E9E9"/>
<path d="M557.77 201.539C547.158 201.539 537.913 199.781 530.035 196.266C522.223 192.685 516.135 187.737 511.773 181.422C507.411 175.042 505.003 167.555 504.547 158.961H523.297C523.688 164.755 525.445 169.605 528.57 173.512C531.695 177.353 535.797 180.25 540.875 182.203C546.018 184.091 551.65 185.035 557.77 185.035C564.475 185.035 570.432 183.961 575.641 181.812C580.914 179.664 585.048 176.669 588.043 172.828C591.103 168.922 592.633 164.397 592.633 159.254C592.633 154.697 591.396 150.953 588.922 148.023C586.448 145.029 583.03 142.555 578.668 140.602C574.371 138.648 569.423 136.923 563.824 135.426L546.539 130.641C534.104 127.255 524.632 122.503 518.121 116.383C511.611 110.198 508.355 102.255 508.355 92.5547C508.355 84.2865 510.536 77.0924 514.898 70.9727C519.26 64.7878 525.217 60.0026 532.77 56.6172C540.322 53.1667 548.85 51.4414 558.355 51.4414C568.056 51.4414 576.585 53.1667 583.941 56.6172C591.363 60.0677 597.19 64.8203 601.422 70.875C605.654 76.9297 607.9 83.8307 608.16 91.5781H590.191C589.41 84.026 586.057 78.1667 580.133 74C574.208 69.8333 566.754 67.75 557.77 67.75C551.52 67.75 546.018 68.7917 541.266 70.875C536.513 72.9583 532.802 75.7904 530.133 79.3711C527.529 82.9518 526.227 87.0534 526.227 91.6758C526.227 96.4284 527.659 100.335 530.523 103.395C533.453 106.389 537.066 108.798 541.363 110.621C545.725 112.444 550.055 113.941 554.352 115.113L569.293 119.117C573.915 120.289 578.635 121.884 583.453 123.902C588.271 125.855 592.73 128.362 596.832 131.422C600.934 134.482 604.254 138.29 606.793 142.848C609.332 147.405 610.602 152.874 610.602 159.254C610.602 167.327 608.486 174.553 604.254 180.934C600.087 187.314 594.065 192.359 586.188 196.07C578.31 199.716 568.837 201.539 557.77 201.539ZM661.119 200.992C652.763 200.992 645.431 199.028 639.122 195.099C632.869 191.114 627.971 185.553 624.43 178.414C620.943 171.275 619.2 163.03 619.2 153.678C619.2 144.16 620.943 135.831 624.43 128.692C627.971 121.498 632.869 115.937 639.122 112.008C645.431 108.023 652.763 106.031 661.119 106.031C665.712 106.031 670.029 106.64 674.068 107.857C678.108 109.075 681.76 110.846 685.025 113.17C688.29 115.494 691.085 118.316 693.409 121.637C695.733 124.902 697.449 128.609 698.556 132.76L684.195 135.914C683.587 133.479 682.59 131.266 681.207 129.273C679.879 127.226 678.246 125.455 676.31 123.961C674.373 122.467 672.132 121.305 669.586 120.475C667.04 119.645 664.218 119.229 661.119 119.229C655.087 119.229 650.079 120.807 646.095 123.961C642.11 127.06 639.122 131.21 637.13 136.412C635.138 141.614 634.142 147.369 634.142 153.678C634.142 159.876 635.138 165.576 637.13 170.777C639.122 175.924 642.083 180.047 646.012 183.146C649.996 186.244 655.032 187.794 661.119 187.794C664.218 187.794 667.04 187.379 669.586 186.549C672.187 185.719 674.483 184.529 676.476 182.979C678.468 181.43 680.128 179.604 681.456 177.501C682.784 175.343 683.78 173.019 684.444 170.528L698.805 173.683C697.698 177.888 695.982 181.651 693.658 184.972C691.334 188.292 688.512 191.17 685.191 193.604C681.926 195.984 678.246 197.81 674.151 199.083C670.056 200.356 665.712 200.992 661.119 200.992ZM747.912 200.992C739.556 200.992 732.224 199.028 725.915 195.099C719.662 191.114 714.764 185.553 711.223 178.414C707.736 171.275 705.993 163.03 705.993 153.678C705.993 144.16 707.736 135.831 711.223 128.692C714.764 121.498 719.662 115.937 725.915 112.008C732.224 108.023 739.556 106.031 747.912 106.031C756.268 106.031 763.601 108.023 769.909 112.008C776.218 115.937 781.115 121.498 784.602 128.692C788.143 135.831 789.914 144.16 789.914 153.678C789.914 163.03 788.143 171.275 784.602 178.414C781.115 185.553 776.218 191.114 769.909 195.099C763.601 199.028 756.268 200.992 747.912 200.992ZM747.912 187.794C753.999 187.794 759.035 186.244 763.02 183.146C767.059 180.047 770.048 175.924 771.984 170.777C773.977 165.576 774.973 159.876 774.973 153.678C774.973 147.424 773.977 141.697 771.984 136.495C770.048 131.238 767.059 127.06 763.02 123.961C759.035 120.807 753.999 119.229 747.912 119.229C741.88 119.229 736.872 120.807 732.888 123.961C728.903 127.06 725.915 131.21 723.923 136.412C721.931 141.614 720.935 147.369 720.935 153.678C720.935 159.876 721.931 165.576 723.923 170.777C725.915 175.924 728.876 180.047 732.805 183.146C736.789 186.244 741.825 187.794 747.912 187.794ZM802.083 233.697V107.359H816.36V121.803H817.688C818.906 119.755 820.566 117.514 822.669 115.079C824.772 112.644 827.594 110.541 831.136 108.771C834.677 106.944 839.215 106.031 844.749 106.031C852.496 106.031 859.275 107.968 865.086 111.842C870.952 115.715 875.545 121.194 878.865 128.277C882.186 135.361 883.846 143.717 883.846 153.346C883.846 163.03 882.186 171.441 878.865 178.58C875.6 185.663 871.035 191.17 865.169 195.099C859.358 198.972 852.579 200.909 844.832 200.909C839.464 200.909 834.982 200.024 831.385 198.253C827.843 196.427 824.993 194.269 822.835 191.778C820.732 189.288 819.044 186.992 817.771 184.889H816.858V233.697H802.083ZM842.591 187.711C848.235 187.711 852.994 186.217 856.868 183.229C860.797 180.24 863.758 176.145 865.75 170.943C867.798 165.742 868.821 159.848 868.821 153.263C868.821 146.677 867.825 140.839 865.833 135.748C863.841 130.602 860.88 126.562 856.951 123.629C853.077 120.696 848.291 119.229 842.591 119.229C836.946 119.229 832.187 120.668 828.313 123.546C824.44 126.368 821.479 130.325 819.432 135.416C817.439 140.507 816.443 146.456 816.443 153.263C816.443 160.069 817.439 166.074 819.432 171.275C821.479 176.422 824.467 180.462 828.396 183.395C832.326 186.272 837.057 187.711 842.591 187.711ZM934.364 200.992C925.51 200.992 917.873 199 911.454 195.016C905.035 191.031 900.11 185.497 896.679 178.414C893.248 171.331 891.532 163.113 891.532 153.761C891.532 144.409 893.22 136.135 896.596 128.941C900.027 121.747 904.841 116.131 911.039 112.091C917.292 108.051 924.542 106.031 932.787 106.031C937.989 106.031 942.997 106.917 947.812 108.688C952.626 110.403 956.942 113.142 960.761 116.905C964.579 120.613 967.595 125.4 969.809 131.266C972.022 137.132 973.129 144.132 973.129 152.267V157.994H901.078V145.543H965.077L958.354 150.025C958.354 143.993 957.357 138.653 955.365 134.005C953.428 129.356 950.551 125.732 946.732 123.131C942.969 120.475 938.321 119.146 932.787 119.146C927.309 119.146 922.577 120.475 918.593 123.131C914.664 125.787 911.648 129.329 909.545 133.756C907.442 138.128 906.391 142.942 906.391 148.199V156.002C906.391 162.698 907.525 168.425 909.794 173.185C912.118 177.944 915.383 181.568 919.589 184.059C923.85 186.549 928.803 187.794 934.447 187.794C938.21 187.794 941.586 187.241 944.574 186.134C947.618 185.027 950.219 183.395 952.377 181.236C954.535 179.078 956.168 176.422 957.274 173.268L971.635 176.422C970.251 181.236 967.844 185.497 964.413 189.205C960.982 192.913 956.693 195.818 951.547 197.921C946.456 199.968 940.728 200.992 934.364 200.992Z" fill="#D9D9D9"/>
</svg>
