<svg width="771" height="240" viewBox="0 0 771 240" fill="none" xmlns="http://www.w3.org/2000/svg">
<g filter="url(#filter0_d_1523_419)">
<path d="M27.0398 231.36C19.5731 231.36 13.8131 229.333 9.75979 225.28C5.91979 221.013 3.99979 215.04 3.99979 207.36V24.96C3.99979 16.8533 5.91979 10.6666 9.75979 6.39998C13.8131 2.1333 19.1465 -3.43323e-05 25.7598 -3.43323e-05C31.5198 -3.43323e-05 35.8931 1.1733 38.8798 3.51998C42.0798 5.65331 45.7065 9.27997 49.7598 14.4L162.08 157.44H153.44V23.68C153.44 16.2133 155.36 10.4533 159.2 6.39998C163.253 2.1333 169.013 -3.43323e-05 176.48 -3.43323e-05C183.946 -3.43323e-05 189.6 2.1333 193.44 6.39998C197.493 10.4533 199.52 16.2133 199.52 23.68V208.32C199.52 215.36 197.706 221.013 194.08 225.28C190.453 229.333 185.546 231.36 179.36 231.36C173.386 231.36 168.586 230.187 164.96 227.84C161.546 225.493 157.813 221.76 153.76 216.64L41.7598 73.6H50.0798V207.36C50.0798 215.04 48.1598 221.013 44.3198 225.28C40.4798 229.333 34.7198 231.36 27.0398 231.36ZM309.577 232C293.577 232 279.391 229.973 267.017 225.92C254.857 221.653 244.617 215.467 236.297 207.36C227.977 199.253 221.684 189.12 217.417 176.96C213.364 164.587 211.337 150.293 211.337 134.08V25.28C211.337 16.96 213.471 10.6666 217.737 6.39998C222.004 2.1333 228.191 -3.43323e-05 236.297 -3.43323e-05C244.191 -3.43323e-05 250.271 2.1333 254.537 6.39998C258.804 10.6666 260.937 16.96 260.937 25.28V134.4C260.937 152.747 265.097 166.613 273.417 176C281.737 185.173 293.791 189.76 309.577 189.76C325.364 189.76 337.311 185.173 345.417 176C353.737 166.613 357.897 152.747 357.897 134.4V25.28C357.897 16.96 360.031 10.6666 364.297 6.39998C368.564 2.1333 374.644 -3.43323e-05 382.537 -3.43323e-05C390.431 -3.43323e-05 396.404 2.1333 400.457 6.39998C404.724 10.6666 406.857 16.96 406.857 25.28V134.08C406.857 155.627 403.124 173.76 395.657 188.48C388.404 202.987 377.524 213.867 363.017 221.12C348.724 228.373 330.911 232 309.577 232ZM444.67 228.48C436.35 228.48 429.95 226.24 425.47 221.76C420.99 217.28 418.75 210.88 418.75 202.56V28.8C418.75 20.48 420.99 14.08 425.47 9.59998C429.95 5.11997 436.35 2.87997 444.67 2.87997H522.11C538.11 2.87997 551.763 5.22663 563.07 9.91997C574.376 14.6133 582.91 21.3333 588.67 30.08C594.643 38.8266 597.63 49.28 597.63 61.44C597.63 74.88 593.79 86.2933 586.11 95.68C578.43 105.067 567.87 111.36 554.43 114.56V109.44C570.003 112.213 582.056 118.4 590.59 128C599.336 137.387 603.71 149.653 603.71 164.8C603.71 184.853 596.776 200.533 582.91 211.84C569.043 222.933 549.95 228.48 525.63 228.48H444.67ZM466.11 191.68H518.91C531.71 191.68 541.096 189.227 547.07 184.32C553.043 179.2 556.03 171.733 556.03 161.92C556.03 152.107 553.043 144.747 547.07 139.84C541.096 134.933 531.71 132.48 518.91 132.48H466.11V191.68ZM466.11 95.68H513.47C525.843 95.68 535.016 93.3333 540.99 88.64C546.963 83.9466 549.95 76.9066 549.95 67.52C549.95 58.3466 546.963 51.4133 540.99 46.72C535.016 42.0266 525.843 39.68 513.47 39.68H466.11V95.68ZM635.17 228.48C626.85 228.48 620.45 226.24 615.97 221.76C611.49 217.28 609.25 210.88 609.25 202.56V28.8C609.25 20.48 611.49 14.08 615.97 9.59998C620.45 5.11997 626.85 2.87997 635.17 2.87997H746.85C753.25 2.87997 758.05 4.58664 761.25 7.99998C764.663 11.2 766.37 15.8933 766.37 22.08C766.37 28.48 764.663 33.3866 761.25 36.8C758.05 40 753.25 41.6 746.85 41.6H656.61V94.4H739.49C746.103 94.4 751.01 96.1066 754.21 99.52C757.623 102.72 759.33 107.52 759.33 113.92C759.33 120.32 757.623 125.227 754.21 128.64C751.01 131.84 746.103 133.44 739.49 133.44H656.61V189.76H746.85C753.25 189.76 758.05 191.467 761.25 194.88C764.663 198.08 766.37 202.773 766.37 208.96C766.37 215.36 764.663 220.267 761.25 223.68C758.05 226.88 753.25 228.48 746.85 228.48H635.17Z" fill="#E9E9E9"/>
</g>
<defs>
<filter id="filter0_d_1523_419" x="0" y="0" width="770.37" height="240" filterUnits="userSpaceOnUse" color-interpolation-filters="sRGB">
<feFlood flood-opacity="0" result="BackgroundImageFix"/>
<feColorMatrix in="SourceAlpha" type="matrix" values="0 0 0 0 0 0 0 0 0 0 0 0 0 0 0 0 0 0 127 0" result="hardAlpha"/>
<feOffset dy="4"/>
<feGaussianBlur stdDeviation="2"/>
<feComposite in2="hardAlpha" operator="out"/>
<feColorMatrix type="matrix" values="0 0 0 0 0 0 0 0 0 0 0 0 0 0 0 0 0 0 0.25 0"/>
<feBlend mode="normal" in2="BackgroundImageFix" result="effect1_dropShadow_1523_419"/>
<feBlend mode="normal" in="SourceGraphic" in2="effect1_dropShadow_1523_419" result="shape"/>
</filter>
</defs>
</svg>
