<svg width="1004" height="379" viewBox="0 0 1004 379" fill="none" xmlns="http://www.w3.org/2000/svg">
<path d="M188.211 74.5263V259H168.737V74.5263H188.211ZM323.608 260.053C322.38 260.491 320.757 260.842 318.74 261.105C316.81 261.456 315.187 261.632 313.872 261.632C308.433 261.632 303.828 259.57 300.056 255.447C296.371 251.237 294.31 244.833 293.871 236.237C289.661 241.675 285.494 246.061 281.372 249.395C277.336 252.728 273.301 255.316 269.266 257.158C265.231 258.912 261.152 260.096 257.029 260.711C252.994 261.325 248.872 261.632 244.661 261.632C239.222 261.632 234.135 260.754 229.398 259C224.661 257.246 220.494 254.746 216.898 251.5C213.389 248.254 210.626 244.351 208.608 239.789C206.591 235.228 205.582 230.14 205.582 224.526C205.582 218.912 206.81 214.132 209.266 210.184C211.722 206.149 214.968 202.684 219.003 199.789C223.126 196.895 227.731 194.482 232.819 192.553C237.994 190.535 243.257 188.781 248.608 187.289C254.047 185.711 259.354 184.219 264.529 182.816C269.705 181.412 274.31 179.877 278.345 178.211C282.468 176.456 285.757 174.482 288.214 172.289C290.67 170.009 291.898 167.202 291.898 163.868C291.898 160.009 291.152 156.588 289.661 153.605C288.17 150.623 286.064 148.123 283.345 146.105C280.626 144 277.336 142.421 273.477 141.368C269.617 140.316 265.363 139.789 260.714 139.789C256.766 139.789 253.038 140.316 249.529 141.368C246.021 142.333 242.863 143.781 240.056 145.711C237.249 147.64 234.924 150.009 233.082 152.816C231.24 155.623 230.056 158.868 229.529 162.553H209.135C209.573 156.061 211.328 150.316 214.398 145.316C217.468 140.316 221.372 136.149 226.108 132.816C230.845 129.395 236.196 126.807 242.161 125.053C248.214 123.298 254.398 122.421 260.714 122.421C267.556 122.421 274.003 123.254 280.056 124.921C286.196 126.588 291.591 129.132 296.24 132.553C300.889 135.974 304.573 140.316 307.293 145.579C310.012 150.754 311.371 156.851 311.371 163.868V233.211C311.371 236.632 312.205 239.395 313.872 241.5C315.626 243.518 317.775 244.526 320.319 244.526C321.459 244.526 322.556 244.351 323.608 244V260.053ZM291.898 184.526C289.179 187.421 285.626 189.833 281.24 191.763C276.942 193.605 272.293 195.272 267.293 196.763C262.38 198.254 257.424 199.702 252.424 201.105C247.424 202.509 242.863 204.175 238.74 206.105C234.705 208.035 231.415 210.404 228.872 213.211C226.328 215.93 225.056 219.395 225.056 223.605C225.056 227.377 225.714 230.579 227.029 233.211C228.345 235.842 230.056 238.035 232.161 239.789C234.266 241.456 236.679 242.684 239.398 243.474C242.117 244.263 244.88 244.658 247.687 244.658C255.757 244.658 263.652 242.202 271.371 237.289C279.179 232.377 286.021 224.833 291.898 214.658V184.526ZM381.343 234.789L418.448 125.053H438.843L382.133 288.079C380.291 293.254 378.141 297.64 375.685 301.237C373.317 304.921 370.773 307.86 368.054 310.053C365.422 312.333 362.703 313.956 359.896 314.921C357.089 315.974 354.37 316.5 351.738 316.5C349.37 316.5 347.045 316.325 344.764 315.974C342.484 315.711 340.071 315.096 337.527 314.132V297.158C338.756 297.684 340.466 298.254 342.659 298.868C344.852 299.482 347.001 299.789 349.106 299.789C351.387 299.789 353.448 298.956 355.291 297.289C357.22 295.711 359.063 293.298 360.817 290.053C362.571 286.807 364.326 282.728 366.08 277.816C367.922 272.904 369.896 267.158 372.001 260.579L322.659 125.053H343.975L381.343 234.789Z" fill="#D9D9D9"/>
<path d="M639.184 195.316C639.271 201.456 640.324 207.509 642.342 213.474C644.447 219.351 647.254 224.614 650.763 229.263C654.359 233.825 658.57 237.553 663.394 240.447C668.219 243.254 673.438 244.658 679.052 244.658C698 244.658 710.587 235.842 716.815 218.211H734.578C733.087 225.053 730.587 231.193 727.078 236.632C723.57 241.982 719.315 246.544 714.315 250.316C709.315 254 703.789 256.807 697.736 258.737C691.684 260.667 685.456 261.632 679.052 261.632C669.842 261.632 661.508 259.658 654.052 255.711C646.684 251.763 640.368 246.5 635.105 239.921C629.842 233.342 625.807 225.754 623 217.158C620.192 208.474 618.789 199.395 618.789 189.921C618.789 181.061 620.192 172.553 623 164.395C625.807 156.237 629.798 149.044 634.973 142.816C640.236 136.588 646.552 131.632 653.921 127.947C661.377 124.263 669.71 122.421 678.921 122.421C687.868 122.421 695.894 124.088 703 127.421C710.192 130.754 716.333 135.36 721.421 141.237C726.508 147.114 730.412 154 733.131 161.895C735.85 169.789 737.21 178.342 737.21 187.553V195.316H639.184ZM717.078 180.316C716.903 174.702 715.85 169.439 713.921 164.526C712.078 159.614 709.447 155.316 706.026 151.632C702.692 147.947 698.614 145.053 693.789 142.947C688.964 140.842 683.57 139.789 677.605 139.789C672.166 139.789 667.122 140.93 662.473 143.211C657.824 145.491 653.789 148.518 650.368 152.289C646.947 156.061 644.228 160.404 642.21 165.316C640.28 170.14 639.271 175.14 639.184 180.316H717.078ZM863.174 260.053C861.946 260.491 860.323 260.842 858.306 261.105C856.376 261.456 854.753 261.632 853.437 261.632C847.999 261.632 843.394 259.57 839.622 255.447C835.937 251.237 833.876 244.833 833.437 236.237C829.227 241.675 825.06 246.061 820.937 249.395C816.902 252.728 812.867 255.316 808.832 257.158C804.797 258.912 800.718 260.096 796.595 260.711C792.56 261.325 788.437 261.632 784.227 261.632C778.788 261.632 773.701 260.754 768.964 259C764.227 257.246 760.06 254.746 756.464 251.5C752.955 248.254 750.192 244.351 748.174 239.789C746.157 235.228 745.148 230.14 745.148 224.526C745.148 218.912 746.376 214.132 748.832 210.184C751.288 206.149 754.534 202.684 758.569 199.789C762.692 196.895 767.297 194.482 772.385 192.553C777.56 190.535 782.823 188.781 788.174 187.289C793.613 185.711 798.92 184.219 804.095 182.816C809.271 181.412 813.876 179.877 817.911 178.211C822.034 176.456 825.323 174.482 827.78 172.289C830.236 170.009 831.464 167.202 831.464 163.868C831.464 160.009 830.718 156.588 829.227 153.605C827.736 150.623 825.63 148.123 822.911 146.105C820.192 144 816.902 142.421 813.043 141.368C809.183 140.316 804.929 139.789 800.28 139.789C796.332 139.789 792.604 140.316 789.095 141.368C785.587 142.333 782.429 143.781 779.622 145.711C776.815 147.64 774.49 150.009 772.648 152.816C770.806 155.623 769.622 158.868 769.095 162.553H748.701C749.139 156.061 750.894 150.316 753.964 145.316C757.034 140.316 760.937 136.149 765.674 132.816C770.411 129.395 775.762 126.807 781.727 125.053C787.78 123.298 793.964 122.421 800.28 122.421C807.122 122.421 813.569 123.254 819.622 124.921C825.762 126.588 831.157 129.132 835.806 132.553C840.455 135.974 844.139 140.316 846.858 145.579C849.578 150.754 850.937 156.851 850.937 163.868V233.211C850.937 236.632 851.771 239.395 853.437 241.5C855.192 243.518 857.341 244.526 859.885 244.526C861.025 244.526 862.122 244.351 863.174 244V260.053ZM831.464 184.526C828.744 187.421 825.192 189.833 820.806 191.763C816.508 193.605 811.858 195.272 806.858 196.763C801.946 198.254 796.99 199.702 791.99 201.105C786.99 202.509 782.429 204.175 778.306 206.105C774.271 208.035 770.981 210.404 768.437 213.211C765.894 215.93 764.622 219.395 764.622 223.605C764.622 227.377 765.28 230.579 766.595 233.211C767.911 235.842 769.622 238.035 771.727 239.789C773.832 241.456 776.244 242.684 778.964 243.474C781.683 244.263 784.446 244.658 787.253 244.658C795.323 244.658 803.218 242.202 810.937 237.289C818.744 232.377 825.587 224.833 831.464 214.658V184.526ZM983.541 259H964.067V235.053C960.646 239.526 957.05 243.298 953.278 246.368C949.593 249.439 945.778 251.939 941.83 253.868C937.883 255.711 933.848 257.026 929.725 257.816C925.69 258.605 921.567 259 917.357 259C911.216 259 905.69 258.079 900.778 256.237C895.953 254.395 891.83 251.763 888.409 248.342C884.988 244.921 882.357 240.798 880.514 235.974C878.76 231.061 877.883 225.579 877.883 219.526V125.053H897.357V217.026C897.357 221.588 897.883 225.447 898.935 228.605C900.076 231.763 901.655 234.351 903.672 236.368C905.778 238.298 908.321 239.702 911.304 240.579C914.286 241.456 917.664 241.895 921.435 241.895C927.313 241.895 932.839 240.754 938.014 238.474C943.19 236.105 947.707 233.123 951.567 229.526C955.427 225.842 958.453 221.763 960.646 217.289C962.927 212.816 964.067 208.43 964.067 204.132V125.053H983.541V259Z" fill="#D9D9D9"/>
<ellipse cx="83" cy="189.503" rx="74" ry="69.503" fill="#D9D9D9"/>
<rect x="9" y="175" width="27" height="164" rx="13.5" fill="#D9D9D9"/>
<circle cx="82.5" cy="190.5" r="42.5" fill="black"/>
<ellipse cx="534" cy="189.503" rx="74" ry="69.503" fill="#D9D9D9"/>
<rect x="460" y="29" width="27" height="171" rx="13.5" fill="#D9D9D9"/>
<circle cx="533.5" cy="190.5" r="42.5" fill="black"/>
<rect x="40.3047" y="299" width="46" height="64.7979" transform="rotate(38.4626 40.3047 299)" fill="#121212"/>
<rect x="460.305" width="46" height="64.7979" transform="rotate(38.4626 460.305 0)" fill="#121212"/>
</svg>
