<svg width="982" height="328" viewBox="0 0 982 328" fill="none" xmlns="http://www.w3.org/2000/svg">
<path d="M180.263 156.289C180.263 170.588 178.289 183.702 174.342 195.632C170.482 207.474 165 217.781 157.895 226.553L184.342 252.737L172.105 264.711L145.263 238.132C138.947 242.868 131.842 246.465 123.947 248.921C116.053 251.377 107.412 252.605 98.0263 252.605C84.8684 252.605 73.1579 250.237 62.8947 245.5C52.7193 240.763 44.1228 234.14 37.1053 225.632C30.1754 217.123 24.9123 206.947 21.3158 195.105C17.7193 183.263 15.9211 170.281 15.9211 156.158C15.9211 142.123 17.7193 129.228 21.3158 117.474C24.9123 105.632 30.1754 95.4561 37.1053 86.9474C44.1228 78.3509 52.7193 71.6842 62.8947 66.9474C73.1579 62.2105 84.8684 59.8421 98.0263 59.8421C111.184 59.8421 122.851 62.2544 133.026 67.079C143.202 71.8158 151.798 78.4386 158.816 86.9474C165.833 95.4561 171.14 105.632 174.737 117.474C178.421 129.316 180.263 142.254 180.263 156.289ZM160.789 156.158C160.789 143.789 159.167 132.693 155.921 122.868C152.763 113.044 148.333 104.754 142.632 98C137.018 91.2456 130.395 86.0702 122.763 82.4737C115.132 78.8772 106.886 77.079 98.0263 77.079C89.1667 77.079 80.921 78.8772 73.2895 82.4737C65.6579 86.0702 59.0351 91.2456 53.4211 98C47.807 104.754 43.3772 113.044 40.1316 122.868C36.9737 132.693 35.3947 143.789 35.3947 156.158C35.3947 168.526 36.9737 179.623 40.1316 189.447C43.3772 199.272 47.807 207.561 53.4211 214.316C59.0351 221.07 65.6579 226.246 73.2895 229.842C80.921 233.439 89.1667 235.237 98.0263 235.237C104.167 235.237 110.088 234.36 115.789 232.605C121.491 230.763 126.754 228.132 131.579 224.711L112.895 205.763L125 193.395L143.947 212.737C149.035 205.895 153.114 197.781 156.184 188.395C159.254 178.921 160.789 168.175 160.789 156.158ZM309.184 248H289.71V224.053C286.289 228.526 282.693 232.298 278.921 235.368C275.236 238.439 271.421 240.939 267.473 242.868C263.526 244.711 259.491 246.026 255.368 246.816C251.333 247.605 247.21 248 243 248C236.859 248 231.333 247.079 226.421 245.237C221.596 243.395 217.473 240.763 214.052 237.342C210.631 233.921 208 229.798 206.157 224.974C204.403 220.061 203.526 214.579 203.526 208.526V114.053H223V206.026C223 210.588 223.526 214.447 224.579 217.605C225.719 220.763 227.298 223.351 229.315 225.368C231.421 227.298 233.964 228.702 236.947 229.579C239.929 230.456 243.307 230.895 247.079 230.895C252.956 230.895 258.482 229.754 263.657 227.474C268.833 225.105 273.35 222.123 277.21 218.526C281.07 214.842 284.096 210.763 286.289 206.289C288.57 201.816 289.71 197.43 289.71 193.132V114.053H309.184V248ZM389.553 111.5C401.053 111.5 410.886 114 419.053 119C427.386 124 433.719 131.083 438.053 140.25C442.553 149.25 444.803 159.833 444.803 172V185.25H353.053C353.386 200.417 357.219 212 364.553 220C372.053 227.833 382.469 231.75 395.803 231.75C404.303 231.75 411.803 231 418.303 229.5C424.969 227.833 431.803 225.5 438.803 222.5V241.75C431.969 244.75 425.219 246.917 418.553 248.25C411.886 249.75 403.969 250.5 394.803 250.5C382.136 250.5 370.886 247.917 361.053 242.75C351.386 237.583 343.803 229.917 338.303 219.75C332.969 209.417 330.303 196.833 330.303 182C330.303 167.333 332.719 154.75 337.553 144.25C342.553 133.75 349.469 125.667 358.303 120C367.303 114.333 377.719 111.5 389.553 111.5ZM389.303 129.5C378.803 129.5 370.469 132.917 364.303 139.75C358.303 146.417 354.719 155.75 353.553 167.75H421.803C421.803 160.083 420.636 153.417 418.303 147.75C415.969 142.083 412.386 137.667 407.553 134.5C402.886 131.167 396.803 129.5 389.303 129.5ZM424.803 59C423.303 61.3333 421.136 64.1667 418.303 67.5C415.469 70.8333 412.303 74.3333 408.803 78C405.469 81.5 402.053 84.9167 398.553 88.25C395.219 91.4167 392.053 94.1667 389.053 96.5H374.553V93.5C377.053 90.3333 379.719 86.5833 382.553 82.25C385.553 77.9167 388.469 73.5 391.303 69C394.136 64.3333 396.469 60.1667 398.303 56.5H424.803V59Z" fill="#E9E9E9"/>
<path d="M778.581 249.053C777.353 249.491 775.73 249.842 773.713 250.105C771.783 250.456 770.16 250.632 768.844 250.632C763.406 250.632 758.8 248.57 755.028 244.447C751.344 240.237 749.283 233.833 748.844 225.237C744.634 230.675 740.467 235.061 736.344 238.395C732.309 241.728 728.274 244.316 724.239 246.158C720.204 247.912 716.125 249.096 712.002 249.711C707.967 250.325 703.844 250.632 699.634 250.632C694.195 250.632 689.107 249.754 684.37 248C679.634 246.246 675.467 243.746 671.87 240.5C668.362 237.254 665.599 233.351 663.581 228.789C661.563 224.228 660.555 219.14 660.555 213.526C660.555 207.912 661.783 203.132 664.239 199.184C666.695 195.149 669.941 191.684 673.976 188.789C678.099 185.895 682.704 183.482 687.792 181.553C692.967 179.535 698.23 177.781 703.581 176.289C709.02 174.711 714.327 173.219 719.502 171.816C724.677 170.412 729.283 168.877 733.318 167.211C737.441 165.456 740.73 163.482 743.186 161.289C745.642 159.009 746.87 156.202 746.87 152.868C746.87 149.009 746.125 145.588 744.634 142.605C743.142 139.623 741.037 137.123 738.318 135.105C735.599 133 732.309 131.421 728.449 130.368C724.59 129.316 720.335 128.789 715.686 128.789C711.739 128.789 708.011 129.316 704.502 130.368C700.993 131.333 697.835 132.781 695.028 134.711C692.221 136.64 689.897 139.009 688.055 141.816C686.213 144.623 685.028 147.868 684.502 151.553H664.107C664.546 145.061 666.3 139.316 669.37 134.316C672.441 129.316 676.344 125.149 681.081 121.816C685.818 118.395 691.169 115.807 697.134 114.053C703.186 112.298 709.37 111.421 715.686 111.421C722.528 111.421 728.976 112.254 735.028 113.921C741.169 115.588 746.563 118.132 751.213 121.553C755.862 124.974 759.546 129.316 762.265 134.579C764.985 139.754 766.344 145.851 766.344 152.868V222.211C766.344 225.632 767.177 228.395 768.844 230.5C770.599 232.518 772.748 233.526 775.292 233.526C776.432 233.526 777.528 233.351 778.581 233V249.053ZM746.87 173.526C744.151 176.421 740.599 178.833 736.213 180.763C731.914 182.605 727.265 184.272 722.265 185.763C717.353 187.254 712.397 188.702 707.397 190.105C702.397 191.509 697.835 193.175 693.713 195.105C689.677 197.035 686.388 199.404 683.844 202.211C681.3 204.93 680.028 208.395 680.028 212.605C680.028 216.377 680.686 219.579 682.002 222.211C683.318 224.842 685.028 227.035 687.134 228.789C689.239 230.456 691.651 231.684 694.37 232.474C697.09 233.263 699.853 233.658 702.66 233.658C710.73 233.658 718.625 231.202 726.344 226.289C734.151 221.377 740.993 213.833 746.87 203.658V173.526ZM818.947 76.9474V114.053H842.632V130.632H818.947V218.395C818.947 221.289 819.298 223.746 820 225.763C820.79 227.693 821.798 229.272 823.026 230.5C824.342 231.64 825.877 232.474 827.632 233C829.386 233.439 831.272 233.658 833.29 233.658C835.746 233.658 838.29 233.439 840.921 233C843.553 232.474 845.833 231.991 847.763 231.553V247.474C845.483 248.175 842.5 248.877 838.816 249.579C835.219 250.281 831.491 250.632 827.632 250.632C824.298 250.632 820.921 250.149 817.5 249.184C814.167 248.307 811.14 246.86 808.421 244.842C805.79 242.825 803.64 240.237 801.974 237.079C800.307 233.833 799.474 229.886 799.474 225.237V130.632H778.947V114.053H799.474V76.9474H818.947ZM873.536 184.316C873.623 190.456 874.676 196.509 876.694 202.474C878.799 208.351 881.606 213.614 885.115 218.263C888.711 222.825 892.922 226.553 897.746 229.447C902.571 232.254 907.79 233.658 913.404 233.658C932.352 233.658 944.939 224.842 951.167 207.211H968.931C967.439 214.053 964.939 220.193 961.431 225.632C957.922 230.982 953.667 235.544 948.667 239.316C943.667 243 938.141 245.807 932.088 247.737C926.036 249.667 919.808 250.632 913.404 250.632C904.194 250.632 895.86 248.658 888.404 244.711C881.036 240.763 874.72 235.5 869.457 228.921C864.194 222.342 860.159 214.754 857.352 206.158C854.545 197.474 853.141 188.395 853.141 178.921C853.141 170.061 854.545 161.553 857.352 153.395C860.159 145.237 864.15 138.044 869.325 131.816C874.588 125.588 880.904 120.632 888.273 116.947C895.729 113.263 904.062 111.421 913.273 111.421C922.22 111.421 930.246 113.088 937.352 116.421C944.545 119.754 950.685 124.36 955.773 130.237C960.86 136.114 964.764 143 967.483 150.895C970.202 158.789 971.562 167.342 971.562 176.553V184.316H873.536ZM951.431 169.316C951.255 163.702 950.202 158.439 948.273 153.526C946.431 148.614 943.799 144.316 940.378 140.632C937.045 136.947 932.966 134.053 928.141 131.947C923.316 129.842 917.922 128.789 911.957 128.789C906.518 128.789 901.474 129.93 896.825 132.211C892.176 134.491 888.141 137.518 884.72 141.289C881.299 145.061 878.58 149.404 876.562 154.316C874.632 159.14 873.623 164.14 873.536 169.316H951.431Z" fill="#E9E9E9"/>
<path d="M546.5 90.9172C586.475 90.9172 620 124.983 620 168.417C620 211.851 586.475 245.917 546.5 245.917C506.525 245.917 473 211.851 473 168.417C473 124.983 506.525 90.9172 546.5 90.9172Z" stroke="#E9E9E9" stroke-width="30"/>
<rect x="677.35" y="10.0823" width="15.579" height="188.111" rx="7.78949" transform="rotate(21.24 677.35 10.0823)" fill="#F7DF5E" stroke="#E9E9E9" stroke-width="15.579"/>
<circle cx="496.5" cy="276.467" r="12.5" fill="white"/>
<circle cx="601.5" cy="276.467" r="12.5" fill="white"/>
</svg>
