<svg width="910" height="232" viewBox="0 0 910 232" fill="none" xmlns="http://www.w3.org/2000/svg">
<path d="M156.474 68.2106C156.474 73.6843 155.789 79.0527 154.421 84.3159C153.158 89.579 151.211 94.579 148.579 99.3159C146.053 103.947 142.842 108.211 138.947 112.105C135.053 116 130.579 119.369 125.526 122.211C131.211 123.684 135.842 125.947 139.421 129C143.105 131.947 145.947 135.421 147.947 139.421C150.053 143.316 151.474 147.579 152.211 152.211C153.053 156.842 153.474 161.579 153.474 166.421V199.737C153.474 204.474 154.105 209.105 155.368 213.632C156.737 218.053 158.421 222.105 160.421 225.79H135C133.947 224.105 133.105 222.211 132.474 220.105C131.947 217.895 131.526 215.632 131.211 213.316C130.895 211 130.684 208.79 130.579 206.684C130.474 204.474 130.421 202.579 130.421 201V165.947C130.421 161.737 129.684 157.579 128.211 153.474C126.842 149.263 124.526 145.526 121.263 142.263C118.105 139 113.947 136.369 108.789 134.369C103.632 132.369 97.3684 131.369 90 131.369H23.3684V225.79H2.39015e-05V5.5264H90C100.737 5.5264 110.211 7.42114 118.421 11.2106C126.737 14.8948 133.684 19.7369 139.263 25.7369C144.947 31.6317 149.211 38.3159 152.053 45.7896C155 53.2632 156.474 60.7369 156.474 68.2106ZM23.3684 110.684H90C95.7895 110.684 101.263 109.579 106.421 107.369C111.579 105.158 116.105 102.105 120 98.2106C124 94.3159 127.158 89.7896 129.474 84.6317C131.789 79.4738 132.947 73.8948 132.947 67.8948C132.947 62.0001 131.842 56.579 129.632 51.6317C127.526 46.579 124.526 42.2106 120.632 38.5264C116.842 34.8422 112.316 32.0001 107.053 30.0001C101.789 27.8948 96.1053 26.8422 90 26.8422H23.3684V110.684ZM335.397 5.5264V26.8422H211.923V101.368H328.134V122.684H211.923V204.474H340.923V225.79H188.555V5.5264H335.397ZM434.977 195.158L497.977 5.5264H523.713L450.292 225.79H420.924L346.24 5.5264H371.977L434.977 195.158ZM722.141 115.421C722.141 132.369 719.93 147.947 715.509 162.158C711.193 176.369 704.825 188.632 696.404 198.947C687.983 209.158 677.615 217.105 665.299 222.79C653.088 228.474 639.088 231.316 623.299 231.316C607.509 231.316 593.457 228.474 581.141 222.79C568.93 217.105 558.615 209.158 550.193 198.947C541.878 188.632 535.509 176.369 531.088 162.158C526.772 147.947 524.615 132.369 524.615 115.421C524.615 98.579 526.772 83.1053 531.088 69.0001C535.509 54.7896 541.878 42.579 550.193 32.3685C558.615 22.158 568.93 14.2106 581.141 8.5264C593.457 2.84219 607.509 8.72612e-05 623.299 8.72612e-05C639.088 8.72612e-05 653.088 2.84219 665.299 8.5264C677.615 14.2106 687.983 22.158 696.404 32.3685C704.825 42.579 711.193 54.7896 715.509 69.0001C719.93 83.1053 722.141 98.579 722.141 115.421ZM698.615 115.421C698.615 100.579 696.667 87.3159 692.772 75.6317C688.878 63.8422 683.509 53.8948 676.667 45.7896C669.93 37.579 661.983 31.3685 652.825 27.158C643.667 22.8422 633.825 20.6843 623.299 20.6843C612.667 20.6843 602.772 22.8422 593.615 27.158C584.457 31.3685 576.509 37.579 569.772 45.7896C563.036 53.8948 557.72 63.8422 553.825 75.6317C550.036 87.3159 548.141 100.579 548.141 115.421C548.141 130.263 550.036 143.579 553.825 155.369C557.72 167.158 563.036 177.158 569.772 185.368C576.509 193.474 584.457 199.684 593.615 204C602.772 208.316 612.667 210.474 623.299 210.474C633.825 210.474 643.667 208.316 652.825 204C661.983 199.684 669.93 193.474 676.667 185.368C683.509 177.158 688.878 167.158 692.772 155.369C696.667 143.579 698.615 130.263 698.615 115.421ZM774.056 5.5264L886.161 195.947V5.5264H909.53V225.79H878.267L766.161 35.5264V225.79H742.793V5.5264H774.056Z" fill="#E9E9E9"/>
</svg>
